<svg xmlns="http://www.w3.org/2000/svg" viewBox="0 0 410 404">
  <path fill="#41D1FF" d="M399.641 59.525L215.643 388.545c-3.799 6.793-13.559 6.793-17.358 0L10.359 59.525c-4.068-7.271 1.997-16.178 10.352-14.688l183.287 32.608c1.313.234 2.659.234 3.972 0l183.319-32.608c8.355-1.49 14.42 7.417 10.352 14.688z"/>
  <path fill="#FFDD35" d="M292.965 1.577L156.801 28.618c-2.28.453-3.996 2.396-4.176 4.725l-10.988 142.518c-.258 3.345 2.596 6.082 5.932 5.691l34.282-4.02c3.616-.424 6.65 2.663 5.986 6.093l-8.483 43.819c-.612 3.163 1.897 6.029 5.094 5.82l20.549-1.345c3.193-.209 5.7 2.648 5.096 5.807l-13.478 70.396c-.943 4.924 5.251 7.631 8.239 3.601l1.998-2.694 110.092-219.937c2.077-4.149-1.507-8.86-6.08-7.989l-35.143 6.693c-3.76.716-7.022-2.72-6.12-6.446l16.63-68.715c.904-3.737-2.38-7.178-6.147-6.438z"/>
</svg>